<svg xmlns="http://www.w3.org/2000/svg" xmlns:xlink="http://www.w3.org/1999/xlink" aria-hidden="true" role="img" class="iconify iconify--logos" width="35.93" height="32" preserveAspectRatio="xMidYMid meet" viewBox="0 0 256 228"><path fill="#00D8FF" d="M210.483 73.824a171.49 171.49 0 0 0-8.24-2.597c.465-1.9.893-3.777 1.273-5.621c6.238-30.281 2.16-54.676-11.769-62.708c-13.355-7.7-35.196.329-57.254 19.526a171.23 171.23 0 0 0-6.375 5.848a155.866 155.866 0 0 0-4.241-3.917C100.759 3.829 77.587-4.822 63.673 3.233C50.33 10.957 46.379 33.89 51.995 62.588a170.974 170.974 0 0 0 1.892 8.48c-3.28.932-6.445 1.924-9.474 2.98C17.309 83.498 0 98.307 0 113.668c0 15.865 18.582 31.778 46.812 41.427a145.52 145.52 0 0 0 6.921 2.165a167.467 167.467 0 0 0-2.01 9.138c-5.354 28.2-1.173 50.591 12.134 58.266c13.744 7.926 36.812-.22 59.273-19.855a145.96 145.96 0 0 0 5.342-4.923a168.064 168.064 0 0 0 6.92 6.314c21.758 18.722 43.246 26.282 56.54 18.586c13.731-7.949 18.194-32.003 12.4-61.268a145.016 145.016 0 0 0-1.535-6.842c1.62-.48 3.21-.974 4.76-1.488c29.348-9.723 48.443-25.443 48.443-41.52c0-15.417-17.868-30.326-45.517-39.844Zm-6.365 70.984c-1.596.54-3.233 1.055-4.9 1.548a197.48 197.48 0 0 0-6.216-16.062c2.4-4.54 4.575-9.094 6.494-13.638c.937 3.083 1.818 6.237 2.6 9.499c2.553 10.651 3.351 19.997 2.022 18.653Zm-10.912 1.956a182.56 182.56 0 0 1-6.406 13.174a185.983 185.983 0 0 1-8.268-12.683c2.84-.913 5.639-1.877 8.37-2.896c2.054-.753 4.059-1.527 5.991-2.32c.1.907.189 1.812.313 2.725ZM128 149.392c-3.234-3.6-6.44-7.398-9.58-11.33c3.132.14 6.301.21 9.58.21c3.29 0 6.47-.07 9.614-.21c-3.152 3.932-6.37 7.73-9.614 11.33Zm-22.067-4.982a185.96 185.96 0 0 1-8.277 12.683a185.56 185.56 0 0 1-6.41-13.162c1.948.79 3.966 1.562 6.035 2.312c2.718 1.017 5.502 1.98 8.365 2.896a1.082 1.082 0 0 0-.007-.042c.097-.23.197-.46.294-.687Zm-39.297-19.82c.951-2.876 1.962-5.735 3.04-8.56c1.837 3.476 3.816 6.993 5.925 10.536a197.7 197.7 0 0 0-6.206 16.008a147.15 147.15 0 0 1-2.6-9.498c-.497-2.833-.8-5.566-.159-8.486Zm5.826-53.868c-1.065 3.099-2.085 6.281-3.05 9.512a176.747 176.747 0 0 0-6.41-10.38c1.929.792 3.957 1.565 6.036 2.315c1.151.42 2.316.834 3.424 1.553Zm37.464-4.538c-3.132-3.937-6.342-7.73-9.576-11.326c3.245.142 6.482.213 9.576.213c3.244 0 6.486-.07 9.624-.213c-3.16 3.595-6.38 7.39-9.624 11.326Zm49.782 4.538c1.116-.72 2.292-1.134 3.443-1.554c2.074-.749 4.1-1.522 6.03-2.314a176.32 176.32 0 0 0-6.408 10.38c-.967-3.231-1.989-6.413-3.065-9.512Zm-4.655 26.437a185.32 185.32 0 0 1 6.516-10.471c2.115 3.546 4.098 7.068 5.941 10.55a199.133 199.133 0 0 0-3.078 8.6c-3.128-2.943-6.296-5.866-9.379-8.68Zm-64.444-8.68a199.015 199.015 0 0 0-3.068-8.547a185.04 185.04 0 0 1 6.508 10.445c-3.088 2.822-6.264 5.757-9.396 8.708c.93-3.46 1.965-6.865 3.073-10.259a1.1 1.1 0 0 0 2.883-.347ZM128 97.5c4.495 0 8.135 3.64 8.135 8.135c0 4.495-3.64 8.135-8.135 8.135c-4.495 0-8.135-3.64-8.135-8.135c0-4.495 3.64-8.135 8.135-8.135Zm-4.659 106.637c-21.3 18.661-41.724 26.243-54.26 19.001c-12.969-7.481-17.063-30.196-11.474-57.76a168.26 168.26 0 0 1 1.982-9.018c3.535 1.002 7.175 1.938 10.878 2.792c3.867 19.662 10.308 38.16 18.998 54.374c-7.485-16.204-13.304-33.756-17.115-52.42a199.91 199.91 0 0 0 9.23 1.803c4.007 18.57 10.27 36.052 18.584 51.768c-7.34-15.724-12.876-32.697-16.26-50.535a196.29 196.29 0 0 0 8.16 1.266c3.59 17.625 9.589 34.192 17.648 49.086c-7.094-14.75-12.264-30.904-15.267-47.904a191.77 191.77 0 0 0 7.055.98c3.241 16.584 8.84 32.218 16.302 46.415c-6.78-14.063-11.617-29.455-14.253-45.706a192.89 192.89 0 0 0 5.947.747c2.921 15.41 8.001 29.983 14.84 43.34c-6.325-13.24-10.806-27.895-13.085-43.415a184.53 184.53 0 0 0 4.856.563c2.639 14.26 7.185 27.73 13.338 39.854c-5.876-12.187-10.031-25.788-12.077-40.112a170.09 170.09 0 0 0 3.805.394c2.36 13.12 6.408 25.517 11.876 36.79c-5.438-11.15-9.27-23.638-11.168-36.938a164.5 164.5 0 0 0 2.803.27c2.082 11.959 5.622 23.257 10.384 33.696a131.24 131.24 0 0 1-10.093-34.023c.62.054 1.247.105 1.874.155Z"></path></svg>
